# xmcd CD database file generated by grip 1.9
# 
# Track frame offsets:
#       150
#       14537
#       28770
#       42182
#       52810
#       63760
#       76095
#       89057
#       100452
#       112255
#       126630
#       141340
#       155092
#       168497
#       180732
#       195370
#       206905
#       221262
#       235707
#       250547
#       265222
#       279407
#       293592
# 
# Disc length: 4095 seconds
# 
# Revision: 3
# Processed by: cddbd v1.4b41PL1 Copyright (c) Steve Scherf et al.
# Submitted via: grip 1.9
# 
DISCID=4f0ffd17
DTITLE=Blind Willie McTell - Complete Recorded Works Vol. 1 (1927-31)
DYEAR=1900
DGENRE=
TTITLE0=Writin' Paper Blues
TTITLE1=Stole Rider Blues
TTITLE2=Mama,'Tain't Long Fo' Day
TTITLE3=Mr. McTell Got The Blues #1
TTITLE4=Mr. McTell Got The Blues #2
TTITLE5=Three Women Blues
TTITLE6=Dark Night Blues
TTITLE7=Statesboro Blues
TTITLE8=Loving Talking Blues
TTITLE9=Atlanta Strut
TTITLE10=Travelin' Blues
TTITLE11=Come On Around To My House Mama
TTITLE12=Kind Mama
TTITLE13=Teasing Brown
TTITLE14=Drive Away Blues
TTITLE15=This Is Not The Stove To Brown Your Bread
TTITLE16=Love Changing Blues
TTITLE17=Talkin' To Myself
TTITLE18=Razor Ball
TTITLE19=Southern Can Is Mine
TTITLE20=Broke Down Engine Blues
TTITLE21=Stomp Down Rider
TTITLE22=Scarey Day Blues
EXTD=
EXTT0=
EXTT1=
EXTT2=
EXTT3=
EXTT4=
EXTT5=
EXTT6=
EXTT7=
EXTT8=
EXTT9=
EXTT10=
EXTT11=
EXTT12=
EXTT13=
EXTT14=
EXTT15=
EXTT16=
EXTT17=
EXTT18=
EXTT19=
EXTT20=
EXTT21=
EXTT22=
PLAYORDER=
